<svg id="visual" viewBox="0 0 900 600" width="900" height="600" xmlns="http://www.w3.org/2000/svg" xmlns:xlink="http://www.w3.org/1999/xlink" version="1.1"><g transform="translate(930.1739336753624 -47.01840231372961)"><path d="M208.3 -368.1C276.3 -321.6 342.1 -278.5 401.2 -217.8C460.3 -157 512.6 -78.5 505.5 -4.1C498.5 70.3 431.9 140.6 384.2 221.2C336.6 301.7 307.8 392.5 246.9 461.3C186 530.2 93 577.1 -9.7 594C-112.5 610.9 -225 597.7 -290.5 531.5C-356.1 465.4 -374.6 346.2 -419.2 248.8C-463.8 151.3 -534.4 75.7 -557.6 -13.4C-580.9 -102.5 -556.7 -205 -505.2 -290.4C-453.7 -375.9 -374.9 -444.3 -286.1 -478.9C-197.3 -513.5 -98.7 -514.2 -14.3 -489.5C70.2 -464.9 140.3 -414.7 208.3 -368.1" fill="#f16712"></path></g></svg>